<?xml version="1.0" encoding="UTF-8"?>
<svg version="1.1" xmlns="http://www.w3.org/2000/svg" width="512" height="512">
    <path d="M0 0 C10.49175361 9.44257825 20.33234208 19.26003939 29.05078125 30.38671875 C29.829375 31.34835938 30.60796875 32.31 31.41015625 33.30078125 C71.62429601 83.88863222 88.71487893 149.39890408 81.86328125 213.32421875 C80.45224292 225.22845483 78.13478074 236.80911724 75.05078125 248.38671875 C74.8305127 249.22750977 74.61024414 250.06830078 74.38330078 250.93457031 C64.47394174 288.11085849 45.00667698 321.76488786 19.15234375 350.0625 C17.31693288 352.0923689 15.55696681 354.16381235 13.80078125 356.26171875 C-19.50588844 394.20698855 -70.17078269 418.00904624 -118.94921875 427.38671875 C-120.13064453 427.63228516 -120.13064453 427.63228516 -121.3359375 427.8828125 C-150.11925203 433.71661662 -183.34389691 432.54353986 -211.94921875 426.38671875 C-213.47699951 426.06525879 -213.47699951 426.06525879 -215.03564453 425.73730469 C-250.39163167 418.09787611 -284.59248756 403.00700934 -312.94921875 380.38671875 C-313.85800781 379.67 -314.76679688 378.95328125 -315.703125 378.21484375 C-330.46699286 366.37014749 -344.25886637 353.2914062 -355.94921875 338.38671875 C-356.71621094 337.44828125 -357.48320312 336.50984375 -358.2734375 335.54296875 C-384.17287619 303.1790969 -400.73186257 263.24869039 -406.94921875 222.38671875 C-407.22415161 220.63355347 -407.22415161 220.63355347 -407.50463867 218.8449707 C-409.09435063 207.66477275 -409.30781868 196.60489506 -409.26171875 185.32421875 C-409.2595636 184.37484436 -409.25740845 183.42546997 -409.25518799 182.44732666 C-409.20347832 168.24570028 -408.82728129 154.34096135 -405.94921875 140.38671875 C-405.74522461 139.3915625 -405.54123047 138.39640625 -405.33105469 137.37109375 C-394.29315903 85.18610818 -367.88288565 33.61497297 -325.94921875 -0.61328125 C-325.10746094 -1.34289062 -324.26570313 -2.0725 -323.3984375 -2.82421875 C-298.19767074 -24.44436236 -268.65676788 -40.78490993 -236.94921875 -50.61328125 C-236.08748047 -50.88124512 -235.22574219 -51.14920898 -234.33789062 -51.42529297 C-153.13269956 -76.1782366 -63.38694533 -56.1667105 0 0 Z " fill="#934AB8" transform="translate(419.94921875,73.61328125)"/>
    <path d="M0 0 C0.33 0 0.66 0 1 0 C0.97905273 0.60134766 0.95810547 1.20269531 0.93652344 1.82226562 C-0.23920319 41.20166631 9.68797937 76.98097808 37 106 C37.5775 106.65355469 38.155 107.30710937 38.75 107.98046875 C61.57140476 132.68667703 97.30878092 143.83057892 129.2121582 150.1628418 C152.59414004 154.83846565 173.09436212 162.87289089 190 180 C191.12728516 181.12921875 191.12728516 181.12921875 192.27734375 182.28125 C208.30779162 199.2655249 213.22637173 221.73531313 213.125 244.375 C213.12886719 245.2309375 213.13273437 246.086875 213.13671875 246.96875 C213.09043127 277.98136161 202.77959573 307.98434385 188 335 C187.52530273 335.88703613 187.52530273 335.88703613 187.04101562 336.79199219 C178.01342094 353.61115186 166.6537574 367.71526307 153 381 C152.34 380.67 151.68 380.34 151 380 C151.37769531 379.57074219 151.75539063 379.14148438 152.14453125 378.69921875 C161.51498186 367.39762141 168.98831761 353.76626683 174 340 C174.31582031 339.27425781 174.63164062 338.54851562 174.95703125 337.80078125 C178.07123621 330.10769958 178.54598387 320.90515868 176.05078125 312.98828125 C171.1935509 302.73753329 163.09488586 298.25278579 153 294 C131.51600763 286.89063823 103.26284019 292.64522663 83.3125 301.9375 C78.71045847 304.38272642 75.61328498 306.45094838 73 311 C72.66666667 313.66666667 72.66666667 313.66666667 74 316 C78.35145894 320.15089069 83.52657016 322.20328131 88.9375 324.625 C109.21631062 334.04439596 128.28258713 348.68665371 137.21484375 369.8828125 C137.89882807 371.89378945 138.46815819 373.943545 139 376 C138.53851563 375.64808594 138.07703125 375.29617188 137.6015625 374.93359375 C135.410935 373.27547056 133.20693168 371.6363591 131 370 C130.21753906 369.4121875 129.43507813 368.824375 128.62890625 368.21875 C122.73273522 363.91690362 116.74562865 360.76664032 110 358 C108.77023437 357.47212891 108.77023437 357.47212891 107.515625 356.93359375 C83.56301388 348.04434832 55.98873478 357.56593714 32.76879883 364.41259766 C10.67523916 370.888261 -15.42644215 376.76756584 -36.8671875 365.4921875 C-57.51326516 353.19604707 -72.10858664 331.57757916 -78.37890625 308.56640625 C-78.68634766 307.29603516 -78.68634766 307.29603516 -79 306 C-79.18820313 305.35160156 -79.37640625 304.70320313 -79.5703125 304.03515625 C-81.68275044 294.029882 -79.83277732 285.17107649 -74.52734375 276.62890625 C-63.74874358 261.51848096 -44.53240539 255.31050406 -27 252 C-18.69997268 250.72874711 -10.35514397 249.82170001 -2 249 C-3.10214844 248.8040625 -4.20429688 248.608125 -5.33984375 248.40625 C-31.67081472 243.36421144 -53.06713 228.65310394 -68.3984375 206.63598633 C-79.9846086 189.24493593 -94 163.45319058 -94 142 C-90.64491156 143.46266777 -88.43494778 145.34074073 -85.8125 147.875 C-62.54097289 169.13034488 -32.55624437 184.92585475 -0.59375 184.3359375 C3.81507487 184.13333973 7.76353649 183.21458243 12 182 C11.18917969 181.40574219 10.37835938 180.81148437 9.54296875 180.19921875 C-9.15918129 166.29409488 -22.89249735 150.06779513 -26.60302734 126.3347168 C-31.74407964 83.14798043 -16.52330291 39.2671434 0 0 Z " fill="#FEFEFE" transform="translate(205,74)"/>
    <path d="M0 0 C5.9717355 3.87172729 11.67095703 7.95913787 17.25 12.375 C18.8313128 13.61549972 20.41337475 14.85504492 21.99609375 16.09375 C22.8144873 16.73441406 23.63288086 17.37507813 24.47607422 18.03515625 C28.73046709 21.34714637 33.02061533 24.61182481 37.3125 27.875 C38.18865967 28.54120361 39.06481934 29.20740723 39.9675293 29.89379883 C41.75230005 31.25051149 43.53721261 32.60703764 45.32226562 33.96337891 C47.98277743 35.98690092 50.64033303 38.01423853 53.296875 40.04296875 C62.2384884 46.8703131 71.19607266 53.67584913 80.1875 60.4375 C81.4715271 61.40538452 81.4715271 61.40538452 82.78149414 62.39282227 C83.56903076 62.98377686 84.35656738 63.57473145 85.16796875 64.18359375 C85.86172607 64.70493896 86.5554834 65.22628418 87.27026367 65.76342773 C88.98620556 67.05825199 88.98620556 67.05825199 91 68 C91.33203576 73.75025574 90.30062541 78.02384416 88.25 83.375 C87.79343018 84.58591309 87.79343018 84.58591309 87.32763672 85.82128906 C80.83553882 102.53143924 72.94028457 119.0513258 63 134 C62.55188965 134.67434082 62.1037793 135.34868164 61.64208984 136.04345703 C54.75339098 146.2984101 47.25897489 155.82157416 39 165 C38.49968262 165.56203125 37.99936523 166.1240625 37.48388672 166.703125 C1.78452336 206.72864072 -47.45457721 233.12372673 -100 243 C-100.9384375 243.18183838 -101.876875 243.36367676 -102.84375 243.55102539 C-111.88762643 245.13614573 -120.87710262 245.5382233 -130.0390625 245.64526367 C-131.76703369 245.67348677 -133.49479206 245.72143792 -135.22167969 245.78881836 C-151.41311473 246.41474435 -151.41311473 246.41474435 -158.21875 240.828125 C-159.83442374 239.24076074 -161.43036445 237.63290269 -163 236 C-164.34790715 234.91798435 -165.71859302 233.86330631 -167.1171875 232.84765625 C-168.04567505 232.15687988 -168.04567505 232.15687988 -168.99291992 231.45214844 C-169.61400635 230.99356445 -170.23509277 230.53498047 -170.875 230.0625 C-172.2647937 229.0279759 -173.65411099 227.99281151 -175.04296875 226.95703125 C-176.05302979 226.20413818 -176.05302979 226.20413818 -177.08349609 225.43603516 C-179.80344223 223.39798125 -182.4968082 221.32647422 -185.1875 219.25 C-190.90525556 214.83916 -196.63552341 210.44504779 -202.375 206.0625 C-203.72053955 205.03298218 -203.72053955 205.03298218 -205.09326172 203.98266602 C-209.25235081 200.81072876 -213.42518279 197.67048508 -217.68359375 194.6328125 C-218.73764404 193.87859009 -218.73764404 193.87859009 -219.81298828 193.10913086 C-221.11366329 192.18436522 -222.42037484 191.26801229 -223.73388672 190.36157227 C-225.20953044 189.31264842 -226.61388972 188.16467331 -228 187 C-228 186.01 -228 185.02 -228 184 C-227.33500488 184.13929932 -226.67000977 184.27859863 -225.98486328 184.42211914 C-200.84426004 189.38379079 -176.60887126 183.96230612 -152.578125 176.41796875 C-127.2493167 168.48012014 -101.41194131 164.71667056 -76.97509766 176.93212891 C-71.65944809 179.80612782 -66.81694382 183.36616519 -62 187 C-61.22140625 187.58265625 -60.4428125 188.1653125 -59.640625 188.765625 C-59.09921875 189.17296875 -58.5578125 189.5803125 -58 190 C-70.21599542 163.50655993 -90.2103593 149.51445663 -115.8125 137.1875 C-122.05577712 134.05520738 -122.05577712 134.05520738 -124 131 C-124.29509869 127.68013978 -123.70063658 125.88427922 -121.62890625 123.26953125 C-109.74066562 111.68808392 -89.16177309 107.49474816 -73 107 C-72.30648437 106.97421875 -71.61296875 106.9484375 -70.8984375 106.921875 C-54.65715633 106.37868834 -39.23498083 107.72490912 -26.0625 118.375 C-19.41477677 126.83573866 -16.9146788 133.91234919 -17.69628906 144.75537109 C-20.13016516 162.74335893 -31.98312124 181.02887443 -43 195 C-9.78355301 168.80352377 8.88055762 120.20443591 15.5390625 79.72265625 C15.83243238 76.80153042 15.95094676 73.93618662 16 71 C16.02852051 69.8557959 16.02852051 69.8557959 16.05761719 68.68847656 C16.54701736 47.43567214 15.17188722 23.24951702 1.28515625 5.8515625 C0 4 0 4 0 0 Z " fill="#8644A7" transform="translate(401,258)"/>
    <path d="M0 0 C1.08976364 3.26929092 0.70236965 4.99293596 0.02001953 8.29003906 C-7.74858415 46.87603855 -1.91186406 94.83723651 20 128 C22.51173868 131.48354233 25.18708323 134.75680915 28 138 C28.66386719 138.80824219 29.32773437 139.61648437 30.01171875 140.44921875 C42.39625505 155.03138072 58.92747399 164.81561348 76 173 C77.33466755 173.66399153 78.66855166 174.3295766 80 175 C75.93133744 176.35622085 73.01194238 175.09186918 69.0625 173.875 C68.29905273 173.64345215 67.53560547 173.4119043 66.74902344 173.17333984 C51.3497048 168.39948634 37.21769557 161.62321654 25 151 C24.17886719 150.32324219 23.35773438 149.64648438 22.51171875 148.94921875 C3.04103263 132.3855091 -6.69892791 109.78101137 -11 85 C-11.30744141 83.28683594 -11.30744141 83.28683594 -11.62109375 81.5390625 C-15.95112626 54.00602817 -11.42145307 26.71792761 -1 1 C-0.67 0.67 -0.34 0.34 0 0 Z " fill="#FBF8FC" transform="translate(235,36)"/>
    <path d="M0 0 C1.80453157 2.70679736 2.98644774 5.29554818 4.20727539 8.29321289 C7.81994955 17.08718165 12.23153833 24.44095636 18 32 C18.46664062 32.65097656 18.93328125 33.30195313 19.4140625 33.97265625 C28.06081111 45.19221042 41.62251089 52.65186232 54 59 C54.61456055 59.31952637 55.22912109 59.63905273 55.86230469 59.96826172 C66.17355888 65.26794718 76.89692379 68.7372015 88 72 C88 72.33 88 72.66 88 73 C62.73223863 72.13466571 39.10017806 62.74757719 21 45 C19.83984375 43.89398438 19.83984375 43.89398438 18.65625 42.765625 C8.77169272 32.67796037 0.37079618 16.44833203 -0.09375 2.10546875 C-0.0628125 1.41066406 -0.031875 0.71585938 0 0 Z " fill="#F8F4FA" transform="translate(116,179)"/>
    <path d="M0 0 C-2.85993887 1.90662591 -5.69438621 3.18455367 -8.85205078 4.51171875 C-28.27331802 12.73012663 -43.69424614 21.84951889 -52 42 C-52.69805213 44.77031474 -52.69805213 44.77031474 -53 47 C-53.33 47 -53.66 47 -54 47 C-54.77917995 34.98331373 -53.02421223 27.7324419 -45.5 18.375 C-34.27678822 6.36382079 -16.38751824 -0.96397166 0 0 Z " fill="#FFFFFF" transform="translate(171,321)"/>
    <path d="M0 0 C1.12758089 3.38274266 0.81750262 4.76778223 0.0625 8.1875 C-0.13214844 9.08855469 -0.32679688 9.98960938 -0.52734375 10.91796875 C-0.68332031 11.60503906 -0.83929688 12.29210938 -1 13 C-1.99 12.34 -2.98 11.68 -4 11 C-3.5247412 9.35303396 -3.04468109 7.70745272 -2.5625 6.0625 C-2.29566406 5.14597656 -2.02882812 4.22945312 -1.75390625 3.28515625 C-1 1 -1 1 0 0 Z " fill="#FFFFFF" transform="translate(235,36)"/>
    <path d="M0 0 C0.66 0.66 1.32 1.32 2 2 C-2.29 1.67 -6.58 1.34 -11 1 C-11 0.67 -11 0.34 -11 0 C-7.02274741 -1.05280216 -3.99945368 -0.97764423 0 0 Z " fill="#FFFFFF" transform="translate(202,250)"/>
</svg>
